<svg width="48" height="48" viewBox="0 0 48 48" fill="none" xmlns="http://www.w3.org/2000/svg">
<g clip-path="url(#clip0)">
<path d="M41.25 38.3827V40.0698C41.25 40.469 41.0911 40.8524 40.8062 41.1315C39.7657 42.1525 38.6331 43.079 37.4213 43.8978C37.1902 44.0542 36.8888 44.0626 36.6522 43.9154C32.9788 41.6317 28.6436 40.3123 24 40.3123C19.3989 40.3123 15.1007 41.6079 11.4489 43.8532C11.1497 44.037 10.7699 44.0289 10.4799 43.8305C9.29553 43.0219 8.18811 42.1093 7.16931 41.1069C6.78369 40.7276 6.5625 40.2119 6.5625 39.6707V38.1791C6.5625 36.2506 4.99915 34.6873 3.07068 34.6873C2.72168 34.6873 2.40417 34.4859 2.25586 34.1702C0.80896 31.0823 0 27.6355 0 23.9998C0 10.7543 10.7303 0.0147861 23.9725 -0.000228537C37.2235 -0.0152432 48.0319 10.8074 48 24.0587C47.9912 27.6791 47.1804 31.1105 45.7365 34.1856C45.5925 34.4921 45.2838 34.6873 44.9454 34.6873C42.9045 34.6873 41.25 36.3418 41.25 38.3827Z" fill="#077965"/>
<path d="M27.75 25.3125C27.75 27.3834 26.0709 29.0625 24 29.0625C21.9291 29.0625 20.25 27.3834 20.25 25.3125C20.25 23.2416 21.9291 21.5625 24 21.5625C26.0709 21.5625 27.75 23.2416 27.75 25.3125Z" fill="#666666"/>
<path d="M32.8125 1.875C32.8125 2.91064 31.9731 3.75 30.9375 3.75C30.3197 3.75 29.7733 3.44971 29.4316 2.98901C26.5367 3.67163 24.375 6.27466 24.375 9.375H22.5C22.5 5.30896 25.3912 1.9054 29.2258 1.11218C29.5181 0.457397 30.174 0 30.9375 0C31.9731 0 32.8125 0.839355 32.8125 1.875Z" fill="#013F69"/>
<path d="M31.2188 0.46875C31.7366 0.46875 32.1562 0.888428 32.1562 1.40625C32.1562 1.92407 31.7366 2.34375 31.2188 2.34375C30.7009 2.34375 30.2812 1.92407 30.2812 1.40625C30.2812 0.888428 30.7009 0.46875 31.2188 0.46875Z" fill="#015081"/>
<path d="M32.8124 25.8123H14.9999C9.82239 25.8123 5.62488 21.6151 5.62488 16.4373V15.4998C5.62488 10.3223 9.82239 6.12476 14.9999 6.12476H32.8124C37.9899 6.12476 42.1874 10.3223 42.1874 15.4998V16.4373C42.1874 21.6151 37.9899 25.8123 32.8124 25.8123ZM45.7488 34.1575C44.5231 36.7773 42.8385 39.1387 40.798 41.1389L37.6207 37.962C37.5874 37.9287 37.5555 37.8943 37.5237 37.8602V42.1874C37.5237 42.7865 37.4669 43.3721 37.3596 43.9397C33.5408 46.5035 28.9452 47.9999 23.9999 47.9999C18.9733 47.9999 14.3085 46.4537 10.453 43.8123C10.3607 43.2842 10.3124 42.7415 10.3124 42.1874V38.0287L7.20178 41.1389C5.16125 39.1387 3.47668 36.7773 2.25098 34.1575L4.41272 31.9957C5.25757 31.1512 6.40491 30.7946 7.50574 30.9246C7.6123 28.9489 9.2478 27.3796 11.2499 27.3796C12.7693 27.3796 14.0763 28.2834 14.6655 29.5824C16.1176 28.6595 17.8398 28.1249 19.6874 28.1249H28.149C30.3148 28.1249 32.3088 28.8599 33.896 30.0933C34.3461 28.5262 35.7886 27.3796 37.4999 27.3796C39.4976 27.3796 41.1298 28.9415 41.2429 30.911C42.0977 30.981 42.933 31.3417 43.587 31.9957L45.7488 34.1575Z" fill="#70A59C"/>
<path d="M18.6565 25.8123C13.4786 25.8123 9.28149 21.6151 9.28149 16.4373V15.4998C9.28149 10.3223 13.4786 6.12476 18.6565 6.12476H32.8127C37.9906 6.12476 42.1877 10.3223 42.1877 15.4998V16.4373C42.1877 21.6151 37.9906 25.8123 32.8127 25.8123H18.6565ZM11.2502 34.8796C9.87366 34.8796 8.67065 34.137 8.01843 33.0314C7.42664 33.2006 6.86816 33.5181 6.40198 33.9846L3.6543 36.7323C4.66211 38.3389 5.85449 39.8176 7.20215 41.1389L10.3794 37.962C11.2228 37.1187 11.5802 35.9735 11.452 34.8738C11.385 34.8774 11.318 34.8796 11.2502 34.8796ZM43.5874 31.9957C42.9333 31.3417 42.098 30.9802 41.2433 30.9103C41.2477 30.9828 41.2502 31.0557 41.2502 31.1296C41.2502 32.7589 40.2106 34.1454 38.7585 34.6625C38.9409 35.1404 39.2247 35.5883 39.61 35.9731L42.6906 39.0541C43.8965 37.5588 44.9263 35.9164 45.7491 34.1575L43.5874 31.9957ZM33.7502 31.1296C33.7502 30.7539 33.8063 30.3914 33.9088 30.0493C32.3312 28.8423 30.3588 28.1249 28.219 28.1249H23.4377C18.2599 28.1249 14.0627 32.322 14.0627 37.4999V42.1874C14.0627 43.642 14.3942 45.0189 14.9852 46.2472C17.7688 47.3766 20.8113 47.9999 24.0002 47.9999C28.98 47.9999 33.6056 46.483 37.4398 43.8866C37.5409 43.3354 37.594 42.7675 37.594 42.1874V37.4999C37.594 36.5862 37.4625 35.7029 37.219 34.8679C35.2795 34.724 33.7502 33.1057 33.7502 31.1296Z" fill="#D7F4EF"/>
<path d="M32.0625 18.3123H15.9375C13.6077 18.3123 11.7188 16.4237 11.7188 14.0935C11.7188 11.7637 13.6077 9.87476 15.9375 9.87476H32.0625C34.3923 9.87476 36.2812 11.7637 36.2812 14.0935C36.2812 16.4237 34.3923 18.3123 32.0625 18.3123Z" fill="#666666"/>
<path d="M32.0625 18.3123H18.2812C15.9514 18.3123 14.0625 16.4237 14.0625 14.0935C14.0625 11.7637 15.9514 9.87476 18.2812 9.87476H32.0625C34.3923 9.87476 36.2812 11.7637 36.2812 14.0935C36.2812 16.4237 34.3923 18.3123 32.0625 18.3123Z" fill="#999999"/>
<path d="M18.2812 11.7498C16.9867 11.7498 15.9375 12.7993 15.9375 14.0935C15.9375 15.3881 16.9867 16.4373 18.2812 16.4373C19.5758 16.4373 20.625 15.3881 20.625 14.0935C20.625 12.7993 19.5758 11.7498 18.2812 11.7498ZM18.2812 15.031C17.7634 15.031 17.3438 14.6113 17.3438 14.0935C17.3438 13.5757 17.7634 13.156 18.2812 13.156C18.7991 13.156 19.2188 13.5757 19.2188 14.0935C19.2188 14.6113 18.7991 15.031 18.2812 15.031ZM29.5312 11.7498C28.2367 11.7498 27.1875 12.7993 27.1875 14.0935C27.1875 15.3881 28.2367 16.4373 29.5312 16.4373C30.8258 16.4373 31.875 15.3881 31.875 14.0935C31.875 12.7993 30.8258 11.7498 29.5312 11.7498ZM29.5312 15.031C29.0134 15.031 28.5938 14.6113 28.5938 14.0935C28.5938 13.5757 29.0134 13.156 29.5312 13.156C30.0491 13.156 30.4688 13.5757 30.4688 14.0935C30.4688 14.6113 30.0491 15.031 29.5312 15.031Z" fill="#EAC43C"/>
<path d="M13.125 31.1296C13.125 32.1649 12.2856 33.0046 11.25 33.0046C10.2144 33.0046 9.375 32.1649 9.375 31.1296C9.375 30.094 10.2144 29.2546 11.25 29.2546C12.2856 29.2546 13.125 30.094 13.125 31.1296ZM37.5 29.2546C36.4644 29.2546 35.625 30.094 35.625 31.1296C35.625 32.1649 36.4644 33.0046 37.5 33.0046C38.5356 33.0046 39.375 32.1649 39.375 31.1296C39.375 30.094 38.5356 29.2546 37.5 29.2546Z" fill="#EAC43C"/>
<path d="M13.125 31.1298C13.125 31.9164 12.6401 32.5887 11.9531 32.8671C11.6147 32.7297 11.3258 32.4965 11.1193 32.2013C11.0486 32.0999 11.1229 31.9651 11.2471 31.9655H11.25C11.7371 31.9655 12.1271 31.5487 12.0828 31.0525C12.0513 30.7031 11.7946 30.4043 11.4543 30.319C11.3829 30.301 11.313 30.2933 11.2449 30.2937C11.1218 30.2944 11.049 30.1589 11.1193 30.0582C11.3258 29.7627 11.6147 29.5294 11.9535 29.3921C12.6401 29.6704 13.125 30.3428 13.125 31.1298ZM38.2031 29.3921C37.8644 29.5294 37.5754 29.7627 37.3693 30.0582C37.2986 30.1589 37.3718 30.2944 37.4945 30.2937C37.5626 30.2933 37.6329 30.3014 37.7043 30.319C38.0446 30.4043 38.3013 30.7031 38.3324 31.0525C38.3771 31.5487 37.9871 31.9655 37.5 31.9655C37.4989 31.9655 37.4978 31.9655 37.4967 31.9655C37.3729 31.9651 37.2982 32.0999 37.3693 32.2013C37.5754 32.4968 37.8644 32.7301 38.2031 32.8671C38.8898 32.5887 39.375 31.9164 39.375 31.1298C39.375 30.3431 38.8901 29.6704 38.2031 29.3921Z" fill="#C4A126"/>
<path d="M30.9375 30.9375C31.4553 30.9375 31.875 31.3572 31.875 31.875C31.875 32.3928 31.4553 32.8125 30.9375 32.8125C30.4197 32.8125 30 32.3928 30 31.875C30 31.3572 30.4197 30.9375 30.9375 30.9375ZM27.1875 31.875C27.1875 32.3928 27.6072 32.8125 28.125 32.8125C28.6428 32.8125 29.0625 32.3928 29.0625 31.875C29.0625 31.3572 28.6428 30.9375 28.125 30.9375C27.6072 30.9375 27.1875 31.3572 27.1875 31.875Z" fill="#666666"/>
<path d="M25.3125 30.9375C25.8303 30.9375 26.25 31.3572 26.25 31.875C26.25 32.3928 25.8303 32.8125 25.3125 32.8125C24.7947 32.8125 24.375 32.3928 24.375 31.875C24.375 31.3572 24.7947 30.9375 25.3125 30.9375Z" fill="#999999"/>
</g>
<defs>
<clipPath id="clip0">
<rect width="48" height="48" fill="white"/>
</clipPath>
</defs>
</svg>
